<svg width="38" height="38" viewBox="0 0 38 38" fill="none" xmlns="http://www.w3.org/2000/svg">
<path d="M34.8333 9.5V15.0417L32.4583 15.8333L30.02 11.9383C29.8141 11.6058 29.2916 11.7483 29.2916 12.1442V17.8125C29.2916 19.3642 28.6741 20.7575 27.7083 21.8183V33.25H23.75V23.75H23.3541C23.0216 23.75 22.6891 23.7025 22.3725 23.655L15.3425 22.4833L13.5691 25.6658L15.0891 33.25H11.0833L9.49997 25.7292C9.45247 25.2542 9.49997 24.7792 9.7533 24.3675L11.3683 21.5017C10.5824 21.0644 9.92381 20.4301 9.45741 19.6611C8.99101 18.8921 8.73284 18.0149 8.7083 17.1158C8.64497 17.3533 8.6133 17.7017 8.6608 18.2083C8.7083 18.905 8.88247 19.9342 8.77164 21.0742C8.7083 22.2142 8.1858 23.3858 7.5208 24.1617C6.83997 24.9375 6.0958 25.4758 5.30414 25.8875L4.1958 24.7792C4.49664 24.035 4.79747 23.37 4.8608 22.7525C4.9558 22.1667 4.84497 21.6917 4.6708 21.2642L3.83164 19.475C3.49914 18.6675 3.08747 17.4958 3.16664 16.1183C3.21414 14.7725 3.9583 13.015 5.36747 12.0492C6.79247 11.0833 8.3283 10.9567 9.57914 11.21C10.3708 11.3683 11.1783 11.7483 11.875 12.2867C12.4608 12.0175 13.1416 11.875 13.8541 11.875H22.9583V11.0833C22.9583 7.58417 25.7925 4.75 29.2916 4.75H34.8333L33.4241 6.87167C34.2791 7.44167 34.8333 8.4075 34.8333 9.5Z" fill="white"/>
</svg>
